# Blender v2.80 (sub 43) OBJ File: 'Fridge.blend'
# www.blender.org
mtllib Fridge.mtl
o Cube
v -0.444459 1.940454 -1.000000
v -0.444459 -1.940454 -1.000000
v -0.444459 1.940454 1.000000
v -0.444459 -1.940454 1.000000
v 0.444459 1.940454 -1.000000
v 0.444459 -1.940454 -1.000000
v 0.444459 1.940454 1.000000
v 0.444459 -1.940454 1.000000
v -0.444459 0.699398 -1.000000
v 0.444459 0.699398 1.000000
v -0.444459 0.699398 1.000000
v 0.444459 0.699398 -1.000000
v 0.444459 0.731308 0.948575
v 0.444459 1.908543 0.948575
v 0.444459 1.908543 -0.948575
v 0.444459 0.731308 -0.948575
v 0.487257 0.731308 0.948575
v 0.487257 1.908543 0.948575
v 0.487257 1.908543 -0.948575
v 0.487257 0.731308 -0.948575
v 0.487257 0.701723 0.996253
v 0.487257 1.938129 0.996253
v 0.487257 1.938129 -0.996253
v 0.487257 0.701723 -0.996253
v 0.537142 0.735428 0.941935
v 0.537142 1.904423 0.941935
v 0.537142 1.904423 -0.941935
v 0.537142 0.735428 -0.941935
v 0.444459 -1.908589 -0.975859
v 0.444459 -1.908589 0.975859
v 0.444459 0.667533 -0.975859
v 0.444459 0.667533 0.975859
v 0.480830 -1.908589 -0.975859
v 0.480830 -1.908589 0.975859
v 0.480830 0.667533 -0.975859
v 0.480830 0.667533 0.975859
v 0.480830 -1.936356 -0.996895
v 0.480830 -1.936356 0.996895
v 0.480830 0.695300 -0.996895
v 0.480830 0.695300 0.996895
v 0.521391 -1.888722 -0.960807
v 0.521391 -1.888722 0.960807
v 0.521391 0.647665 -0.960807
v 0.521391 0.647665 0.960807
v 0.444459 -1.940454 0.880686
v -0.444459 1.940454 0.880686
v 0.444459 1.940454 0.880686
v -0.444459 -1.940454 0.880686
v -0.444459 0.699398 0.880686
v 0.444459 0.699398 0.880686
v 0.444459 1.908543 0.835397
v 0.444459 0.731308 0.835397
v 0.487257 1.908543 0.835397
v 0.487257 0.731308 0.835397
v 0.487257 1.938129 0.877386
v 0.487257 0.701723 0.877386
v 0.537142 1.904423 0.829549
v 0.537142 0.735428 0.829549
v 0.444459 -1.908589 0.859425
v 0.444459 0.667533 0.859425
v 0.480830 -1.908589 0.859425
v 0.480830 0.667533 0.859425
v 0.480830 -1.936356 0.877952
v 0.480830 0.695300 0.877952
v 0.521391 -1.888722 0.846169
v 0.521391 0.647665 0.846169
v 0.444459 1.940454 0.799581
v -0.444459 -1.940454 0.799581
v 0.444459 0.699398 0.799581
v 0.444459 1.908543 0.758463
v 0.444459 0.731308 0.758463
v 0.487257 1.908543 0.758463
v 0.487257 0.731308 0.758463
v 0.487257 1.938129 0.796585
v 0.487257 0.701723 0.796585
v 0.537142 1.904423 0.753154
v 0.537142 0.735428 0.753154
v 0.444459 0.667533 0.780278
v 0.480830 0.667533 0.780278
v 0.480830 0.695300 0.797099
v 0.521391 0.647665 0.768243
v 0.444459 -1.940454 0.799581
v -0.444459 1.940454 0.799581
v -0.444459 0.699398 0.799581
v 0.444459 -1.908589 0.780278
v 0.480830 -1.908589 0.780278
v 0.480830 -1.936356 0.797099
v 0.521391 -1.888722 0.768243
v 0.444459 1.017586 1.000000
v -0.444459 1.017586 -1.000000
v -0.444459 1.017586 1.000000
v 0.444459 1.017586 -1.000000
v 0.444459 1.033133 0.948575
v 0.444459 1.033133 -0.948575
v 0.487257 1.033133 0.948575
v 0.487257 1.033133 -0.948575
v 0.487257 1.018718 0.996253
v 0.487257 1.018718 -0.996253
v 0.537142 1.035141 0.941935
v 0.537142 1.035141 -0.941935
v 0.537142 1.035141 0.829549
v -0.444459 1.017586 0.880686
v -0.444459 1.017586 0.799581
v 0.537142 1.035141 0.753154
v -0.444459 0.940233 -1.000000
v -0.444459 0.940233 1.000000
v 0.444459 0.940233 -1.000000
v 0.444459 0.959759 -0.948575
v 0.487257 0.959759 -0.948575
v 0.487257 0.941656 -0.996253
v 0.537142 0.962280 -0.941935
v 0.537142 0.962280 0.829549
v -0.444459 0.940233 0.880686
v -0.444459 0.940233 0.799581
v 0.537142 0.962280 0.753154
v 0.444459 0.940233 1.000000
v 0.444459 0.959759 0.948575
v 0.487257 0.959759 0.948575
v 0.487257 0.941656 0.996253
v 0.537142 0.962280 0.941935
v -0.444459 0.497999 -1.000000
v -0.444459 0.497999 1.000000
v 0.444459 0.497999 -1.000000
v 0.444459 0.497999 1.000000
v 0.444459 0.470996 -0.975859
v 0.444459 0.470996 0.975859
v 0.480830 0.470996 -0.975859
v 0.480830 0.470996 0.975859
v 0.480830 0.494527 -0.996895
v 0.480830 0.494527 0.996895
v 0.521391 0.454160 -0.960807
v 0.521391 0.454160 0.960807
v 0.521391 0.454160 0.846169
v -0.444459 0.497999 0.880686
v -0.444459 0.497999 0.799581
v 0.521391 0.454160 0.768243
v -0.444459 0.417193 -1.000000
v -0.444459 0.417193 1.000000
v 0.444459 0.417193 -1.000000
v 0.444459 0.392141 -0.975859
v 0.480830 0.392141 -0.975859
v 0.480830 0.413971 -0.996895
v 0.521391 0.376521 -0.960807
v 0.521391 0.376521 0.846169
v -0.444459 0.417193 0.880686
v -0.444459 0.417193 0.799581
v 0.521391 0.376521 0.768243
v 0.444459 0.417193 1.000000
v 0.444459 0.392141 0.975859
v 0.480830 0.392141 0.975859
v 0.480830 0.413971 0.996895
v 0.521391 0.376521 0.960807
v 0.563408 1.035141 0.829549
v 0.563408 1.035141 0.753154
v 0.563408 0.962280 0.829549
v 0.563408 0.962280 0.753154
v 0.547658 0.454160 0.846169
v 0.547658 0.454160 0.768243
v 0.547658 0.376521 0.846169
v 0.547658 0.376521 0.768243
v 0.596195 1.035141 0.818793
v 0.596195 1.035141 0.769543
v 0.596195 0.962280 0.818793
v 0.596195 0.962280 0.769543
v 0.580445 0.454160 0.829508
v 0.580445 0.454160 0.779271
v 0.580445 0.376521 0.829508
v 0.580445 0.376521 0.779271
v 0.642938 1.035141 0.818793
v 0.642938 1.035141 0.769543
v 0.642938 0.962280 0.818793
v 0.642938 0.962280 0.769543
v 0.627188 0.454160 0.829508
v 0.627188 0.454160 0.779271
v 0.627188 0.376521 0.829508
v 0.627188 0.376521 0.779271
v 0.610355 1.013068 0.437590
v 0.610355 0.984352 0.437590
v 0.593235 0.432917 0.447318
v 0.593235 0.397765 0.447318
v 0.628778 1.013068 0.437590
v 0.628778 0.984352 0.437590
v 0.614398 0.432917 0.447318
v 0.614398 0.397765 0.447318
vt 0.545054 0.500000
vt 0.545054 0.514914
vt 0.545054 0.514914
vt 0.375000 1.000000
vt 0.375000 0.985086
vt 0.375000 0.985086
vt 0.625000 0.250000
vt 0.625000 0.250000
vt 0.625000 0.235086
vt 0.526875 0.525052
vt 0.532080 0.525052
vt 0.532080 0.525052
vt 0.560568 0.525052
vt 0.565551 0.525052
vt 0.565551 0.525052
vt 0.545054 0.500000
vt 0.375000 1.000000
vt 0.625000 0.235086
vt 0.526875 0.525052
vt 0.560568 0.525052
vt 0.625000 0.235086
vt 0.375000 0.235086
vt 0.375000 0.250000
vt 0.625000 0.250000
vt 0.565551 0.250000
vt 0.565551 0.500000
vt 0.810568 0.500000
vt 0.810568 0.500000
vt 0.795054 0.500000
vt 0.625000 0.985086
vt 0.375000 0.985086
vt 0.375000 1.000000
vt 0.375000 0.735086
vt 0.315551 0.735086
vt 0.315551 0.750000
vt 0.875000 0.500000
vt 0.815551 0.500000
vt 0.815551 0.750000
vt 0.795054 0.500000
vt 0.782080 0.500000
vt 0.782080 0.750000
vt 0.295054 0.735086
vt 0.282080 0.735086
vt 0.282080 0.750000
vt 0.532080 0.500000
vt 0.532080 0.500000
vt 0.545054 0.500000
vt 0.545054 0.250000
vt 0.532080 0.250000
vt 0.625000 0.224948
vt 0.625000 0.224948
vt 0.625000 0.000000
vt 0.545054 0.514914
vt 0.545054 0.514914
vt 0.545054 0.500000
vt 0.565551 0.500000
vt 0.625000 0.500000
vt 0.625000 0.525052
vt 0.565551 0.525052
vt 0.565551 0.750000
vt 0.375000 0.985086
vt 0.375000 1.000000
vt 0.545054 0.525052
vt 0.545054 0.525052
vt 0.545054 0.750000
vt 0.776875 0.500000
vt 0.776875 0.500000
vt 0.625000 0.500000
vt 0.545054 0.525052
vt 0.532080 0.525052
vt 0.532080 0.750000
vt 0.532080 0.500000
vt 0.532080 0.514914
vt 0.545054 0.514914
vt 0.545054 0.500000
vt 0.375000 0.974948
vt 0.375000 0.974948
vt 0.565551 0.500000
vt 0.565551 0.514914
vt 0.625000 0.514914
vt 0.545054 0.525052
vt 0.625000 0.250000
vt 0.625000 0.250000
vt 0.295054 0.724948
vt 0.282080 0.724948
vt 0.375000 0.724948
vt 0.315551 0.724948
vt 0.625000 0.974948
vt 0.375000 0.224948
vt 0.625000 0.000000
vt 0.375000 0.000000
vt 0.625000 0.750000
vt 0.375000 0.750000
vt 0.375000 0.500000
vt 0.315551 0.500000
vt 0.295054 0.500000
vt 0.282080 0.500000
vt 0.545054 0.750000
vt 0.545054 0.750000
vt 0.375000 0.750000
vt 0.545054 0.514914
vt 0.625000 0.235086
vt 0.310568 0.500000
vt 0.310568 0.724948
vt 0.310568 0.735086
vt 0.560568 0.500000
vt 0.560568 0.514914
vt 0.560568 0.525052
vt 0.560568 0.750000
vt 0.560568 0.500000
vt 0.560568 0.500000
vt 0.810568 0.750000
vt 0.310568 0.750000
vt 0.875000 0.500000
vt 0.560568 0.250000
vt 0.295054 0.750000
vt 0.795054 0.750000
vt 0.545054 0.525052
vt 0.545054 0.750000
vt 0.545054 0.500000
vt 0.545054 0.514914
vt 0.815551 0.500000
vt 0.276875 0.500000
vt 0.276875 0.724948
vt 0.276875 0.735086
vt 0.526875 0.500000
vt 0.526875 0.514914
vt 0.526875 0.525052
vt 0.526875 0.750000
vt 0.795054 0.500000
vt 0.526875 0.250000
vt 0.526875 0.500000
vt 0.526875 0.500000
vt 0.276875 0.750000
vt 0.776875 0.750000
vt 0.625000 0.500000
vt 0.125000 0.735086
vt 0.125000 0.750000
vt 0.375000 0.500000
vt 0.375000 0.500000
vt 0.375000 0.250000
vt 0.375000 0.525052
vt 0.375000 0.750000
vt 0.375000 0.500000
vt 0.375000 0.514914
vt 0.125000 0.724948
vt 0.125000 0.500000
vt 0.782080 0.500000
vt 0.625000 0.500000
vt 0.625000 1.000000
vt 0.375000 0.750000
vt 0.875000 0.750000
vt 0.625000 0.750000
vt 0.545054 0.750000
vt 0.545054 0.500000
vt 0.625000 0.500000
vt 0.810568 0.500000
vt 0.565551 0.500000
vt 0.625000 0.224948
vt 0.545054 0.525052
vt 0.776875 0.500000
vt 0.532080 0.500000
vt 0.375000 0.974948
vt 0.545054 0.500000
vt 0.545054 0.525052
vt 0.545054 0.750000
vt 0.375000 0.750000
vt 0.545054 0.514914
vt 0.560568 0.500000
vt 0.875000 0.500000
vt 0.815551 0.500000
vt 0.526875 0.500000
vt 0.795054 0.500000
vt 0.375000 0.500000
vt 0.782080 0.500000
vt 0.795054 0.500000
vt 0.625000 0.500000
vt 0.625000 0.000000
vt 0.545054 0.750000
vt 0.625000 0.500000
vt 0.526875 0.514914
vt 0.560568 0.514914
vt 0.532080 0.525052
vt 0.560568 0.514914
vt 0.565551 0.514914
vt 0.560568 0.525052
vt 0.526875 0.525052
vt 0.565551 0.525052
vt 0.565551 0.514914
vt 0.532080 0.514914
vt 0.532080 0.514914
vt 0.526875 0.514914
vt 0.526875 0.514914
vt 0.526875 0.525052
vt 0.565551 0.514914
vt 0.560568 0.514914
vt 0.560568 0.525052
vt 0.532080 0.514914
vt 0.565551 0.525052
vt 0.560568 0.525052
vt 0.532080 0.525052
vt 0.565551 0.525052
vt 0.532080 0.525052
vt 0.526875 0.525052
vt 0.625000 0.224948
vt 0.625000 0.224948
vt 0.625000 0.000000
vt 0.810568 0.500000
vt 0.565551 0.500000
vt 0.810568 0.500000
vt 0.795054 0.500000
vt 0.532080 0.500000
vt 0.545054 0.525052
vt 0.776875 0.500000
vt 0.375000 0.985086
vt 0.375000 1.000000
vt 0.776875 0.500000
vt 0.625000 0.500000
vt 0.545054 0.514914
vt 0.545054 0.500000
vt 0.375000 0.974948
vt 0.375000 0.974948
vt 0.545054 0.525052
vt 0.625000 0.250000
vt 0.545054 0.750000
vt 0.375000 0.750000
vt 0.625000 0.235086
vt 0.560568 0.500000
vt 0.815551 0.500000
vt 0.875000 0.500000
vt 0.875000 0.500000
vt 0.815551 0.500000
vt 0.782080 0.500000
vt 0.795054 0.500000
vt 0.795054 0.500000
vt 0.526875 0.500000
vt 0.375000 0.500000
vt 0.782080 0.500000
vt 0.625000 0.000000
vt 0.795054 0.500000
vt 0.625000 0.500000
vt 0.545054 0.750000
vt 0.625000 0.500000
vn -1.0000 -0.0000 0.0000
vn -0.9993 0.0000 -0.0385
vn -0.9991 0.0000 -0.0426
vn 0.0000 1.0000 0.0000
vn 0.0000 0.0000 1.0000
vn 1.0000 0.0000 0.0000
vn 0.0000 -1.0000 0.0000
vn 0.0000 0.0000 -1.0000
vn 0.3188 0.0000 -0.9478
vn 0.3117 0.0000 0.9502
vn 0.4471 0.0000 -0.8945
vn 0.4530 0.0000 0.8915
vn 0.0000 -0.9980 -0.0639
vn 0.9991 0.0000 -0.0426
vn 0.0000 0.9980 -0.0639
vn 0.0000 -0.9978 -0.0663
vn 0.9993 0.0000 -0.0385
vn 0.0000 0.9978 -0.0663
vn 0.5599 0.8286 0.0000
vn 0.7365 0.0000 -0.6764
vn 0.7365 0.0000 0.6764
vn 0.5599 -0.8286 0.0000
vn 0.6647 0.0000 0.7471
vn 0.7614 -0.6483 0.0000
vn 0.7614 0.6483 0.0000
vn 0.6647 0.0000 -0.7471
usemtl Material
s off
f 17/1/1 54/2/1 56/3/1
f 34/4/1 61/5/1 63/6/1
f 18/7/1 22/8/1 55/9/1
f 168/10/2 166/11/2 179/12/2
f 164/13/3 162/14/3 177/15/3
f 17/1/1 56/3/1 21/16/1
f 34/4/1 63/6/1 38/17/1
f 18/7/1 55/9/1 53/18/1
f 168/10/2 179/12/2 180/19/2
f 164/13/3 177/15/3 178/20/3
usemtl Fridge_Body
f 47/21/4 46/22/4 3/23/4
f 3/24/5 91/25/5 89/26/5
f 107/27/6 108/28/6 16/29/6
f 48/30/7 45/31/7 8/32/7
f 46/33/1 102/34/1 91/35/1
f 5/36/8 92/37/8 90/38/8
f 12/39/8 123/40/8 121/41/8
f 49/42/1 134/43/1 122/44/1
f 124/45/6 126/46/6 32/47/6
f 11/48/5 122/49/5 124/45/5
f 67/50/6 70/51/6 15/52/6
f 50/53/6 52/54/6 13/55/6
f 89/26/6 93/56/6 14/57/6
f 76/58/6 104/59/6 100/60/6
f 45/31/6 59/61/6 30/62/6
f 69/63/6 78/64/6 31/65/6
f 139/66/6 140/67/6 29/68/6
f 81/69/6 136/70/6 131/71/6
f 132/72/6 133/73/6 66/74/6
f 50/53/6 10/75/6 32/47/6
f 82/76/6 85/77/6 59/61/6
f 99/78/6 101/79/6 57/80/6
f 69/63/6 71/81/6 52/54/6
f 47/21/6 7/82/6 14/83/6
f 84/84/1 135/85/1 134/43/1
f 83/86/1 103/87/1 102/34/1
f 68/88/7 82/76/7 45/31/7
f 67/50/4 83/89/4 46/22/4
f 5/90/4 1/91/4 83/89/4
f 2/92/7 6/93/7 82/76/7
f 1/94/1 90/95/1 103/87/1
f 9/96/1 121/97/1 135/85/1
f 69/63/6 12/98/6 16/99/6
f 82/76/6 6/93/6 29/100/6
f 66/74/6 133/73/6 136/70/6
f 69/63/6 50/53/6 60/101/6
f 57/80/6 101/79/6 104/59/6
f 67/50/6 47/21/6 51/102/6
f 90/95/1 105/103/1 114/104/1
f 103/87/1 114/104/1 113/105/1
f 99/78/6 120/106/6 112/107/6
f 104/59/6 115/108/6 111/109/6
f 89/26/6 116/110/6 117/111/6
f 92/37/8 107/27/8 105/112/8
f 102/34/1 113/105/1 106/113/1
f 92/37/6 5/36/6 15/114/6
f 91/25/5 106/115/5 116/110/5
f 106/115/5 11/48/5 10/75/5
f 113/105/1 49/42/1 11/116/1
f 107/27/8 12/39/8 9/117/8
f 116/110/6 10/75/6 13/55/6
f 115/108/6 77/118/6 28/119/6
f 25/120/6 58/121/6 112/107/6
f 114/104/1 84/84/1 49/42/1
f 105/103/1 9/96/1 84/84/1
f 112/107/6 58/121/6 77/118/6
f 92/37/6 94/122/6 108/28/6
f 121/97/1 137/123/1 146/124/1
f 135/85/1 146/124/1 145/125/1
f 152/126/6 144/127/6 133/73/6
f 136/70/6 147/128/6 143/129/6
f 123/40/6 12/39/6 31/130/6
f 122/49/5 138/131/5 148/132/5
f 148/132/6 149/133/6 126/46/6
f 134/43/1 145/125/1 138/134/1
f 123/40/8 139/66/8 137/135/8
f 139/66/8 6/136/8 2/92/8
f 145/125/1 48/137/1 4/138/1
f 148/132/6 8/139/6 30/140/6
f 138/131/5 4/141/5 8/139/5
f 147/128/6 88/142/6 41/143/6
f 152/126/6 42/144/6 65/145/6
f 146/124/1 68/146/1 48/137/1
f 137/123/1 2/147/1 68/146/1
f 144/127/6 65/145/6 88/142/6
f 139/66/6 123/40/6 125/148/6
f 47/21/4 3/23/4 7/82/4
f 3/24/5 89/26/5 7/149/5
f 107/27/6 16/29/6 12/39/6
f 48/30/7 8/32/7 4/150/7
f 46/33/1 91/35/1 3/151/1
f 5/36/8 90/38/8 1/152/8
f 12/39/8 121/41/8 9/117/8
f 49/42/1 122/44/1 11/116/1
f 124/45/6 32/47/6 10/75/6
f 11/48/5 124/45/5 10/75/5
f 67/50/6 15/52/6 5/90/6
f 50/53/6 13/55/6 10/75/6
f 89/26/6 14/57/6 7/149/6
f 76/58/6 100/60/6 27/153/6
f 45/31/6 30/62/6 8/32/6
f 69/63/6 31/65/6 12/98/6
f 139/66/6 29/68/6 6/136/6
f 81/69/6 131/71/6 43/154/6
f 132/72/6 66/74/6 44/155/6
f 50/53/6 32/47/6 60/101/6
f 82/76/6 59/61/6 45/31/6
f 99/78/6 57/80/6 26/156/6
f 69/63/6 52/54/6 50/53/6
f 47/21/6 14/83/6 51/102/6
f 84/84/1 134/43/1 49/42/1
f 83/86/1 102/34/1 46/33/1
f 68/88/7 45/31/7 48/30/7
f 67/50/4 46/22/4 47/21/4
f 5/90/4 83/89/4 67/50/4
f 2/92/7 82/76/7 68/88/7
f 1/94/1 103/87/1 83/86/1
f 9/96/1 135/85/1 84/84/1
f 69/63/6 16/99/6 71/81/6
f 82/76/6 29/100/6 85/77/6
f 66/74/6 136/70/6 81/69/6
f 69/63/6 60/101/6 78/64/6
f 57/80/6 104/59/6 76/58/6
f 67/50/6 51/102/6 70/51/6
f 90/95/1 114/104/1 103/87/1
f 103/87/1 113/105/1 102/34/1
f 99/78/6 112/107/6 101/79/6
f 104/59/6 111/109/6 100/60/6
f 89/26/6 117/111/6 93/56/6
f 92/37/8 105/112/8 90/38/8
f 102/34/1 106/113/1 91/35/1
f 92/37/6 15/114/6 94/122/6
f 91/25/5 116/110/5 89/26/5
f 106/115/5 10/75/5 116/110/5
f 113/105/1 11/116/1 106/113/1
f 107/27/8 9/117/8 105/112/8
f 116/110/6 13/55/6 117/111/6
f 115/108/6 28/119/6 111/109/6
f 25/120/6 112/107/6 120/106/6
f 114/104/1 49/42/1 113/105/1
f 105/103/1 84/84/1 114/104/1
f 112/107/6 77/118/6 115/108/6
f 92/37/6 108/28/6 107/27/6
f 121/97/1 146/124/1 135/85/1
f 135/85/1 145/125/1 134/43/1
f 152/126/6 133/73/6 132/72/6
f 136/70/6 143/129/6 131/71/6
f 123/40/6 31/130/6 125/148/6
f 122/49/5 148/132/5 124/45/5
f 148/132/6 126/46/6 124/45/6
f 134/43/1 138/134/1 122/44/1
f 123/40/8 137/135/8 121/41/8
f 139/66/8 2/92/8 137/135/8
f 145/125/1 4/138/1 138/134/1
f 148/132/6 30/140/6 149/133/6
f 138/131/5 8/139/5 148/132/5
f 147/128/6 41/143/6 143/129/6
f 152/126/6 65/145/6 144/127/6
f 146/124/1 48/137/1 145/125/1
f 137/123/1 68/146/1 146/124/1
f 144/127/6 88/142/6 147/128/6
f 139/66/6 125/148/6 140/67/6
usemtl Fridge_Sealant
f 16/29/8 108/28/8 109/157/8
f 14/57/5 93/56/5 95/158/5
f 13/55/7 52/54/7 54/2/7
f 15/52/4 70/51/4 72/159/4
f 31/65/4 78/64/4 79/160/4
f 29/68/8 140/67/8 141/161/8
f 32/47/5 126/46/5 128/162/5
f 30/62/7 59/61/7 61/5/7
f 59/61/7 85/77/7 86/163/7
f 60/101/4 32/47/4 36/164/4
f 51/102/4 14/83/4 18/7/4
f 52/54/7 71/81/7 73/165/7
f 71/81/7 16/99/7 20/166/7
f 85/77/7 29/100/7 33/167/7
f 78/64/4 60/101/4 62/168/4
f 70/51/4 51/102/4 53/18/4
f 93/56/5 117/111/5 118/169/5
f 94/122/8 15/114/8 19/170/8
f 117/111/5 13/55/5 17/1/5
f 108/28/8 94/122/8 96/171/8
f 126/46/5 149/133/5 150/172/5
f 125/148/8 31/130/8 35/173/8
f 149/133/5 30/140/5 34/174/5
f 140/67/8 125/148/8 127/175/8
f 16/29/8 109/157/8 20/176/8
f 14/57/5 95/158/5 18/177/5
f 13/55/7 54/2/7 17/1/7
f 15/52/4 72/159/4 19/178/4
f 31/65/4 79/160/4 35/179/4
f 29/68/8 141/161/8 33/180/8
f 32/47/5 128/162/5 36/164/5
f 30/62/7 61/5/7 34/4/7
f 59/61/7 86/163/7 61/5/7
f 60/101/4 36/164/4 62/168/4
f 51/102/4 18/7/4 53/18/4
f 52/54/7 73/165/7 54/2/7
f 71/81/7 20/166/7 73/165/7
f 85/77/7 33/167/7 86/163/7
f 78/64/4 62/168/4 79/160/4
f 70/51/4 53/18/4 72/159/4
f 93/56/5 118/169/5 95/158/5
f 94/122/8 19/170/8 96/171/8
f 117/111/5 17/1/5 118/169/5
f 108/28/8 96/171/8 109/157/8
f 126/46/5 150/172/5 128/162/5
f 125/148/8 35/173/8 127/175/8
f 149/133/5 34/174/5 150/172/5
f 140/67/8 127/175/8 141/161/8
usemtl Material.001
f 133/73/5 144/127/5 159/181/5
f 101/79/5 112/107/5 155/182/5
f 158/183/9 166/11/9 168/10/9
f 155/182/10 163/184/10 161/185/10
f 112/107/7 115/108/7 156/186/7
f 144/127/7 147/128/7 160/187/7
f 115/108/8 104/59/8 154/188/8
f 147/128/8 136/70/8 158/183/8
f 104/59/4 101/79/4 153/189/4
f 136/70/4 133/73/4 157/190/4
f 165/191/5 167/192/5 175/193/5
f 167/192/7 168/10/7 176/194/7
f 158/183/4 157/190/4 165/191/4
f 156/186/11 154/188/11 162/14/11
f 153/189/4 161/185/4 162/14/4
f 160/187/7 168/10/7 167/192/7
f 157/190/12 159/181/12 167/192/12
f 155/182/7 156/186/7 164/13/7
f 169/195/6 171/196/6 172/197/6
f 173/198/6 175/193/6 176/194/6
f 163/184/7 164/13/7 172/197/7
f 161/185/5 163/184/5 171/196/5
f 176/194/13 168/10/13 180/19/13
f 166/11/4 165/191/4 173/198/4
f 170/199/14 172/197/14 182/200/14
f 162/14/4 161/185/4 169/195/4
f 180/19/8 179/12/8 183/201/8
f 178/20/8 177/15/8 181/202/8
f 166/11/15 174/203/15 183/201/15
f 172/197/16 164/13/16 178/20/16
f 174/203/17 176/194/17 184/204/17
f 162/14/18 170/199/18 181/202/18
f 133/73/5 159/181/5 157/190/5
f 101/79/5 155/182/5 153/189/5
f 158/183/9 168/10/9 160/187/9
f 155/182/10 161/185/10 153/189/10
f 112/107/7 156/186/7 155/182/7
f 144/127/7 160/187/7 159/181/7
f 115/108/8 154/188/8 156/186/8
f 147/128/8 158/183/8 160/187/8
f 104/59/4 153/189/4 154/188/4
f 136/70/4 157/190/4 158/183/4
f 165/191/5 175/193/5 173/198/5
f 167/192/7 176/194/7 175/193/7
f 158/183/4 165/191/4 166/11/4
f 156/186/11 162/14/11 164/13/11
f 153/189/4 162/14/4 154/188/4
f 160/187/7 167/192/7 159/181/7
f 157/190/12 167/192/12 165/191/12
f 155/182/7 164/13/7 163/184/7
f 169/195/6 172/197/6 170/199/6
f 173/198/6 176/194/6 174/203/6
f 163/184/7 172/197/7 171/196/7
f 161/185/5 171/196/5 169/195/5
f 176/194/13 180/19/13 184/204/13
f 166/11/4 173/198/4 174/203/4
f 170/199/14 182/200/14 181/202/14
f 162/14/4 169/195/4 170/199/4
f 180/19/8 183/201/8 184/204/8
f 178/20/8 181/202/8 182/200/8
f 166/11/15 183/201/15 179/12/15
f 172/197/16 178/20/16 182/200/16
f 174/203/17 184/204/17 183/201/17
f 162/14/18 181/202/18 177/15/18
usemtl Rim
f 74/205/19 76/206/19 27/207/19
f 19/178/1 72/159/1 74/205/1
f 20/176/1 109/157/1 110/208/1
f 18/177/1 95/158/1 97/209/1
f 110/208/20 111/210/20 28/211/20
f 97/209/21 99/78/21 26/156/21
f 56/3/22 58/121/22 25/120/22
f 36/164/1 128/162/1 130/212/1
f 130/212/23 132/72/23 44/155/23
f 35/179/1 79/160/1 80/213/1
f 33/180/1 141/161/1 142/214/1
f 63/6/24 65/215/24 42/216/24
f 80/213/25 81/69/25 43/154/25
f 142/214/26 143/217/26 41/218/26
f 64/219/25 40/220/25 44/155/25
f 87/221/24 88/222/24 65/215/24
f 36/164/1 40/220/1 64/219/1
f 61/5/1 86/163/1 87/221/1
f 75/223/22 77/118/22 58/121/22
f 55/9/19 22/8/19 26/224/19
f 54/2/1 73/165/1 75/223/1
f 20/166/1 24/225/1 75/223/1
f 75/223/22 24/225/22 28/119/22
f 33/167/1 37/226/1 87/221/1
f 87/221/24 37/226/24 41/143/24
f 80/213/25 64/219/25 66/74/25
f 62/168/1 64/219/1 80/213/1
f 53/18/1 55/9/1 74/205/1
f 74/205/19 55/9/19 57/227/19
f 97/209/21 119/228/21 120/106/21
f 98/229/20 23/230/20 27/231/20
f 118/169/1 119/228/1 97/209/1
f 19/170/1 23/230/1 98/229/1
f 17/1/1 21/16/1 119/228/1
f 119/228/21 21/16/21 25/120/21
f 98/229/20 100/232/20 111/210/20
f 109/157/1 96/171/1 98/229/1
f 129/233/26 39/234/26 43/235/26
f 35/173/1 39/234/1 129/233/1
f 151/236/23 152/126/23 132/72/23
f 128/162/1 150/172/1 151/236/1
f 34/174/1 38/237/1 151/236/1
f 151/236/23 38/237/23 42/144/23
f 142/214/26 129/233/26 131/238/26
f 127/175/1 129/233/1 142/214/1
f 74/205/19 27/207/19 23/239/19
f 19/178/1 74/205/1 23/239/1
f 20/176/1 110/208/1 24/240/1
f 18/177/1 97/209/1 22/241/1
f 110/208/20 28/211/20 24/240/20
f 97/209/21 26/156/21 22/241/21
f 56/3/22 25/120/22 21/16/22
f 36/164/1 130/212/1 40/220/1
f 130/212/23 44/155/23 40/220/23
f 35/179/1 80/213/1 39/242/1
f 33/180/1 142/214/1 37/243/1
f 63/6/24 42/216/24 38/17/24
f 80/213/25 43/154/25 39/242/25
f 142/214/26 41/218/26 37/243/26
f 64/219/25 44/155/25 66/74/25
f 87/221/24 65/215/24 63/6/24
f 36/164/1 64/219/1 62/168/1
f 61/5/1 87/221/1 63/6/1
f 75/223/22 58/121/22 56/3/22
f 55/9/19 26/224/19 57/227/19
f 54/2/1 75/223/1 56/3/1
f 20/166/1 75/223/1 73/165/1
f 75/223/22 28/119/22 77/118/22
f 33/167/1 87/221/1 86/163/1
f 87/221/24 41/143/24 88/222/24
f 80/213/25 66/74/25 81/69/25
f 62/168/1 80/213/1 79/160/1
f 53/18/1 74/205/1 72/159/1
f 74/205/19 57/227/19 76/206/19
f 97/209/21 120/106/21 99/78/21
f 98/229/20 27/231/20 100/232/20
f 118/169/1 97/209/1 95/158/1
f 19/170/1 98/229/1 96/171/1
f 17/1/1 119/228/1 118/169/1
f 119/228/21 25/120/21 120/106/21
f 98/229/20 111/210/20 110/208/20
f 109/157/1 98/229/1 110/208/1
f 129/233/26 43/235/26 131/238/26
f 35/173/1 129/233/1 127/175/1
f 151/236/23 132/72/23 130/212/23
f 128/162/1 151/236/1 130/212/1
f 34/174/1 151/236/1 150/172/1
f 151/236/23 42/144/23 152/126/23
f 142/214/26 131/238/26 143/217/26
f 127/175/1 142/214/1 141/161/1
